      <svg
        width="130"
        height="63"
        viewBox="0 0 130 63"
        fill="none"
        xmlns="http://www.w3.org/2000/svg"
      >
        <g clip-path="url(#clip0_8479_854)">
          <g clip-path="url(#clip1_8479_854)">
            <path
              d="M24.532 36.709c3.014 1.425 2.44 2.283 4.941 4.03 3.773 2.635 9.268 4.305 14.947 4.566 8.038.352 18.207-1.15 23.866.337 5.31 1.394 6.151 6.266 10.888 8.32 5.556 2.405 13.014 1.25 18.84 3.694 3.985 2.138 4.088 5.128 3.781 6.032-.226.674-1.298-3.046-2.425-3.016-1.128.047-2.215-.23-3.28-.49C90.737 58.85 78.276 57.992 73.5 56c-6.213-2.59-4.64-6.788-12.02-7.554-5.844-.613-11.75.75-17.675.934-6.827.2-13.737-1.24-18.945-3.953-3.383-1.777-6.13-4.075-10.088-5.317C9.34 38.425 2.368 38.977-2.45 36.694c-2.726-1.288-4.797-3.785-4.039-5.915 2.05.26 2.42.184 4.388.966 2.83 1.118 7.197 3.095 9.678 3.232 5.023.276 12.773-.23 16.956 1.732z"
              fill="url(#paint0_linear_8479_854)"
            />
            <path
              d="M-2.101 63.89V33.738c-.164-.858-.123-.828-.062-.812 3.035 1.24 5.475 3.049 8.796 3.968 4.285 1.195 9.37.751 13.738 1.808 6.97 1.686 10.887 6.864 18.207 7.86 4.695.629 9.472-.674 14.27-.873 3.199-.138 6.459.245 9.37 1.073 2.296.658 4.429 1.639 5.803 2.941 1.045.996 1.64 2.16 2.583 3.187 1.62 1.747 4.306 3.095 7.422 3.708 3.055.613 6.356.506 9.555.736 3.855.276 12.17 1.774 14.419 5.669h-3.45L-2.1 63.89z"
              fill="#CDEBF9"
            />
            <path
              d="M8.705 42.84c3.219 2.144 4.53 6.772 8.468 8.396 4.94 2.022 11.338 2.099 17.182 1.517 5.843-.583 11.543-1.762 17.468-2.008 2.584-.107 5.352 0 7.423.95 3.526 1.61 3.588 4.888 6.315 7.003 4.572 3.539 14.598 2.543 19.355 5.99-3.752 1.027-7.853 1.425-11.912 1.732a355.526 355.526 0 01-47.466.429c-7.935-.46-15.829-1.18-23.723-1.915-1.742-.153-3.506-.322-5.084-.782-4.655-1.348-6.52-4.842-6.848-7.998-.247-2.283.061-4.581.881-6.803.41-1.134.964-2.252 1.66-3.34.267-.429 1.129-1.21 1.15-1.655.02-.398-.8-.766-.821-1.287-.082-1.793 3.486-2.62 5.495-2.482 3.65.245 7.976.613 10.457 2.252z"
              fill="#A8DCEF"
            />
            <path
              opacity=".44"
              d="M3.598 35.178c5.803 1.884 13.574.428 19.007 2.696 3.198 1.333 4.839 3.677 7.668 5.302 3.22 1.854 7.75 2.635 12.138 2.742 4.408.108 8.776-.383 13.143-.75 4.675-.384 9.965-.521 13.532 1.378 3.404 1.808 4.183 4.934 7.34 6.91 3.363 2.1 8.55 2.452 13.246 3.034 4.695.583 9.924 1.885 11.318 4.704.389.782.389 1.686-.41 2.345-.8.643-2.584.842-3.445.23-.39-.276-.533-.644-.759-.981-1.312-2.084-5.187-3.095-8.775-3.417-3.588-.322-7.34-.184-10.744-.98-6.91-1.625-10.088-6.451-15.562-9.516-1.025-.566-2.173-1.087-3.506-1.271-1.476-.2-2.994.046-4.45.29-4.264.736-8.734 1.579-13.04.935-6.786-1.026-10.702-5.301-16.464-7.737-2.952-1.257-6.458-2.007-10.046-2.176-1.969-.092-3.978-.076-5.906-.306-5.125-.644-10.723-4.183-10.969-6.604 1.312.812 5.003 2.635 6.684 3.172z"
              fill="#fff"
            />
            <path
              d="M21.683 56.03c3.69-.122 7.32-.582 10.928-1.041l11.749-1.471c2.317-.291 4.757-.583 6.992-.123 3.28.659 5.228 2.666 7.012 4.49a95.725 95.725 0 006.15 5.73c.267.23.554.49.513.766-.082.536-1.189.72-2.05.75-16.71.813-33.462-1.01-50.213-.75-3.978.061-8.037.23-11.872-.398-3.26-.537-6.458-1.824-7.565-3.785-.574-1.026-.533-2.145-.472-3.233.062-1.042-4.08-11.706-1.825-11.859 6.746-.46 9.165 5.822 12.815 7.983 5.31 3.14 11.482 3.171 17.838 2.942z"
              fill="#98CEE5"
            />
            <path
              opacity=".55"
              d="M47.14 52.033c1.496-.122 3.383.108 4.777.46 1.292.322 2.235 1.011 3.117 1.685 2.296 1.778 4.408 3.647 6.294 5.593a82.418 82.418 0 00-6.356-4.398c-1.292-.812-2.645-1.608-4.347-2.053-1.27-.337-2.686-.444-4.06-.46-2.214-.015-5.433.185-7.565.414 2.542-.505 5.761-1.041 8.14-1.24zM8.664 54.681c3.937 1.042 8.386 1.134 12.65.874-4.264-.046-8.508-.644-12.343-1.777-1.127-.338-2.235-.705-3.178-1.226-1.353-.736-1.989-1.21-3.075-2.084-.308-.26-2.317-1.961-2.727-1.9 0 0 1.25 1.762 1.456 2.023 1.435 1.853 4.162 3.278 7.217 4.09z"
              fill="#fff"
            />
          </g>
          <path
            d="M25.186 19.072c-4.075 5.905-5.808 13.22-6.097 20.409-.288 7.187.77 14.343 1.861 21.467l-6 2.053c-.321-7.669-.642-15.37.385-22.943 1.027-7.605 3.465-15.146 8.15-21.21l1.701.224z"
            fill="#978093"
          />
          <path
            d="M14.952 62.969h6.676c-.225-1.444-1.093-4.91-1.317-6.354a15.345 15.345 0 01-5.68-2.984c.064 3.112.192 6.225.32 9.338zm10.237-43.897l-1.733-.289c-1.893 2.439-3.401 5.102-4.589 7.926a59.89 59.89 0 013.145-1.733 32.61 32.61 0 013.177-5.904z"
            fill="#645B79"
          />
          <path
            d="M18.255 53.983c-.321-2.631-.738-6-.899-9.37-.192-3.37-.096-6.77-.064-9.402-.866 2.503-1.38 6-1.187 9.466.16 3.498 1.027 6.9 2.15 9.306zm.032-14.63c.096-1.348.192-3.08.417-4.782.225-1.7.546-3.401.802-4.749-.642 1.188-1.22 2.888-1.444 4.653-.224 1.765-.128 3.562.225 4.878z"
            fill="#CEB49D"
          />
          <path
            d="M15.563 20.934c2.695-.738 5.39-1.252 7.99-1.509-3.754-3.53-9.498-4.716-14.344-2.984C4.364 18.142.674 22.7 0 27.801a47.255 47.255 0 015.455-3.113c.289-.93.578-1.829.899-2.76-.033.803-.097 1.605-.129 2.407.834-.385 1.669-.738 2.503-1.091a24.7 24.7 0 011.252-3.016l-.097 2.567a58.485 58.485 0 014.557-1.54l1.444-2.215c-.096.642-.225 1.252-.321 1.894z"
            fill="#00C6C1"
          />
          <path
            d="M14.76 7.81C10.205 5.628 4.525 5.95.226 8.58c1.797.385 3.85 1.06 5.968 1.926 1.38-.45 2.856-.706 4.3-.738a56.657 56.657 0 01-2.246 1.604c1.7.738 3.401 1.54 5.006 2.375 1.476-.193 2.92-.353 4.396-.546-.835.481-1.701.995-2.535 1.476a161.064 161.064 0 018.439 4.717c-.674-5.006-4.236-9.434-8.792-11.584z"
            fill="#009F9A"
          />
          <path
            d="M12.13-8.717c1.541 2.214 2.953 4.75 4.236 7.38.867.161 1.701.418 2.503.739L17.04.075c.386.867.738 1.701 1.091 2.568.674.032 1.316.096 1.99.128a12.68 12.68 0 01-1.54.995c3.24 8.086 4.973 15.595 4.973 15.595C30.454-.438 12.131-8.717 12.131-8.717z"
            fill="#00C6C1"
          />
          <path
            d="M48.552 2.193S28.689-.952 23.555 19.424c0 0 3.818-3.626 9.177-7.701-.513-.385-.995-.77-1.508-1.123a11.05 11.05 0 012.31.545 94.903 94.903 0 014.364-3.08 12.878 12.878 0 00-3.273-1.188c1.412.065 2.792.29 4.172.61 3.144-2.118 6.514-4.01 9.755-5.294z"
            fill="#009F9A"
          />
          <path
            d="M49 23.179c-2.149-4.589-6.706-7.926-11.711-8.632-5.006-.706-10.43 1.027-13.734 4.877 0 0 2.663.097 6.385.385-.224-.641-.481-1.283-.834-1.86.706.641 1.444 1.315 2.15 1.957 1.7.16 3.594.353 5.487.577-.16-.898-.289-1.765-.45-2.663.61.93 1.188 1.893 1.798 2.824 3.979.61 8.022 1.412 10.91 2.535z"
            fill="#00C6C1"
          />
          <path
            d="M37.192 24.782c-3.08-4.107-8.567-6.257-13.637-5.39a51.338 51.338 0 015.423 5.197c.385-.61.738-1.219 1.123-1.829 0 .93-.129 1.83-.289 2.76 1.059 1.251 2.118 2.535 3.08 3.85.546-1.058 1.06-2.15 1.605-3.208a10.303 10.303 0 01-1.027 4.01c2.086 2.953 3.883 6.098 5.198 9.21 2.182-4.653 1.605-10.493-1.476-14.6z"
            fill="#009F9A"
          />
          <path
            d="M38.773 60.159c-3.3-5.874-4.422-19.338 0-27.356l-1.848.528c-4.422 8.051-5.544 17.291-3.234 26.168l5.081.66z"
            fill="#978093"
          />
          <path
            d="M38.772 32.772l-1.848.528a36.432 36.432 0 00-2.244 4.916 6.024 6.024 0 012.409-1.254c.429-1.485.99-2.904 1.683-4.19zm-5.741 23.626c.165 1.023 1.316 5.611 1.58 6.601h5.854c-.43-.759-2.484-4.489-2.847-5.446a10.604 10.604 0 01-4.587-1.155z"
            fill="#645B79"
          />
          <path
            d="M34.515 56.133c-.198-1.947-.396-4.455-.363-6.93.033-2.508.297-4.983.528-6.93-.825 1.782-1.452 4.323-1.452 6.93-.066 2.541.495 5.115 1.287 6.93z"
            fill="#CEB49D"
          />
          <path
            d="M32.073 37.028c1.848-1.419 3.729-2.673 5.643-3.728-3.993-1.518-8.778-.594-11.946 2.276-3.168 2.871-4.52 7.557-3.432 11.682a33.795 33.795 0 013.201-4.125c-.066-.792-.132-1.584-.198-2.409.231.627.462 1.254.66 1.881.495-.56 1.023-1.089 1.551-1.65a18.514 18.514 0 010-2.706c.231.66.495 1.32.726 2.013.957-.924 1.98-1.782 3.003-2.64.132-.726.264-1.419.429-2.145.099.528.23 1.056.363 1.551z"
            fill="#008C6F"
          />
          <path
            d="M28.212 25.843c-4.125-.792-8.613.627-11.517 3.663 1.518-.066 3.3.066 5.214.297a12.358 12.358 0 013.3-1.485c-.495.594-.957 1.188-1.452 1.75a63.73 63.73 0 014.52.857c1.123-.462 2.278-.89 3.4-1.353l-1.716 1.716c4.323.99 7.755 2.046 7.755 2.046-1.584-3.894-5.38-6.699-9.504-7.49z"
            fill="#00656C"
          />
          <path
            d="M21.941 13.666c1.75 1.386 3.498 3.069 5.115 4.884a12.003 12.003 0 012.178 0l-1.287.99 1.485 1.782a28.351 28.351 0 011.617-.363c-.297.396-.627.792-.99 1.155 4.488 5.675 7.656 11.22 7.656 11.22.759-17.424-15.774-19.668-15.774-19.668z"
            fill="#008C6F"
          />
          <path
            d="M56.062 16.072s-16.697-.099-18.38 17.226c0 0 2.672-3.432 6.566-7.458-.462-.264-.924-.495-1.386-.76.66-.032 1.32.034 1.98.166.99-1.023 2.08-2.046 3.201-3.069-.924-.33-1.848-.495-2.838-.56a24.703 24.703 0 013.498-.034c2.343-2.079 4.851-4.026 7.359-5.51z"
            fill="#00656C"
          />
          <path
            d="M59 35.116c-2.014-3.696-5.974-6.237-10.165-6.534-4.19-.297-8.58 1.419-11.12 4.752 0 0 2.21-.066 5.313 0a6.427 6.427 0 00-.792-1.485c.627.495 1.254 1.023 1.88 1.518 1.42.033 3.004.099 4.587.198l-.495-2.178c.561.759 1.09 1.485 1.65 2.244 3.267.23 6.666.693 9.141 1.485z"
            fill="#008C6F"
          />
          <path
            d="M48.44 39.009c-2.179-3.663-6.502-5.94-10.758-5.676a41.432 41.432 0 013.992 4.785l1.09-1.386a12.964 12.964 0 01-.495 2.244c.758 1.122 1.517 2.277 2.177 3.465.528-.825 1.09-1.683 1.617-2.508-.198 1.122-.594 2.244-1.22 3.2 1.451 2.64 2.64 5.38 3.431 8.086 2.277-3.663 2.343-8.547.165-12.21z"
            fill="#00656C"
          />
        </g>
        <defs>
          <clipPath id="clip0_8479_854">
            <path fill="#fff" d="M0 0h130v63H0z" />
          </clipPath>
          <clipPath id="clip1_8479_854">
            <path
              fill="#fff"
              transform="matrix(-1 0 0 1 102 32)"
              d="M0 0h102v31H0z"
            />
          </clipPath>
          <linearGradient
            id="paint0_linear_8479_854"
            x1="101.967"
            y1="45.731"
            x2="-6.642"
            y2="45.731"
            gradientUnits="userSpaceOnUse"
          >
            <stop stop-color="#FFD32A" />
            <stop offset="1" stop-color="#FCB013" />
          </linearGradient>
        </defs>
      </svg>