    <svg
      width="130"
      height="63"
      viewBox="0 0 130 63"
      fill="none"
      xmlns="http://www.w3.org/2000/svg"
    >
      <g clip-path="url(#clip0_8479_912)">
        <g clip-path="url(#clip1_8479_912)">
          <path
            d="M105.468 36.709c-3.014 1.425-2.44 2.283-4.941 4.03-3.773 2.635-9.268 4.305-14.947 4.566-8.038.352-18.207-1.15-23.866.337-5.31 1.394-6.151 6.266-10.888 8.32-5.556 2.405-13.014 1.25-18.84 3.694-3.985 2.138-4.088 5.128-3.78 6.032.225.674 1.297-3.046 2.424-3.016 1.128.047 2.215-.23 3.28-.49C39.263 58.85 51.724 57.992 56.5 56c6.213-2.59 4.64-6.788 12.02-7.554 5.844-.613 11.75.75 17.675.934 6.827.2 13.737-1.24 18.945-3.953 3.383-1.777 6.13-4.075 10.088-5.317 5.433-1.685 12.404-1.133 17.223-3.416 2.726-1.288 4.797-3.785 4.039-5.915-2.051.26-2.42.184-4.388.966-2.83 1.118-7.197 3.095-9.678 3.232-5.023.276-12.773-.23-16.956 1.732z"
            fill="url(#paint0_linear_8479_912)"
          />
          <path
            d="M132.101 63.89V33.738c.164-.858.123-.828.062-.812-3.035 1.24-5.475 3.049-8.796 3.968-4.285 1.195-9.37.751-13.738 1.808-6.971 1.686-10.887 6.864-18.207 7.86-4.695.629-9.472-.674-14.27-.873-3.198-.138-6.459.245-9.37 1.073-2.296.658-4.429 1.639-5.803 2.941-1.045.996-1.64 2.16-2.583 3.187-1.62 1.747-4.306 3.095-7.422 3.708-3.055.613-6.356.506-9.555.736-3.854.276-12.17 1.774-14.419 5.669h3.45l100.651.889z"
            fill="#CDEBF9"
          />
          <path
            d="M121.295 42.84c-3.219 2.144-4.531 6.772-8.468 8.396-4.941 2.022-11.338 2.099-17.181 1.517-5.844-.583-11.544-1.762-17.47-2.008-2.583-.107-5.35 0-7.422.95-3.526 1.61-3.588 4.888-6.315 7.003-4.572 3.539-14.598 2.543-19.355 5.99 3.752 1.027 7.853 1.425 11.912 1.732a355.526 355.526 0 0047.466.429c7.935-.46 15.829-1.18 23.723-1.915 1.742-.153 3.506-.322 5.084-.782 4.655-1.348 6.52-4.842 6.849-7.998.246-2.283-.062-4.581-.882-6.803a16.768 16.768 0 00-1.661-3.34c-.266-.429-1.128-1.21-1.148-1.655-.021-.398.8-.766.82-1.287.082-1.793-3.486-2.62-5.495-2.482-3.649.245-7.976.613-10.457 2.252z"
            fill="#A8DCEF"
          />
          <path
            opacity=".44"
            d="M126.402 35.178c-5.803 1.884-13.574.428-19.007 2.696-3.198 1.333-4.839 3.677-7.668 5.302-3.22 1.854-7.75 2.635-12.138 2.742-4.409.108-8.776-.383-13.143-.75-4.675-.384-9.965-.521-13.532 1.378-3.404 1.808-4.183 4.934-7.34 6.91-3.363 2.1-8.55 2.452-13.246 3.034-4.695.583-9.924 1.885-11.318 4.704-.39.782-.39 1.686.41 2.345.8.643 2.584.842 3.445.23.39-.276.533-.644.759-.981 1.312-2.084 5.187-3.095 8.775-3.417 3.588-.322 7.34-.184 10.744-.98 6.91-1.625 10.088-6.451 15.562-9.516 1.025-.566 2.173-1.087 3.506-1.271 1.476-.2 2.994.046 4.45.29 4.264.736 8.734 1.579 13.04.935 6.786-1.026 10.702-5.301 16.464-7.737 2.952-1.257 6.458-2.007 10.047-2.176 1.968-.092 3.977-.076 5.905-.306 5.125-.644 10.723-4.183 10.969-6.604-1.312.812-5.003 2.635-6.684 3.172z"
            fill="#fff"
          />
          <path
            d="M108.317 56.03c-3.691-.122-7.32-.582-10.928-1.041L85.64 53.518c-2.317-.291-4.757-.583-6.992-.123-3.28.659-5.228 2.666-7.012 4.49a95.725 95.725 0 01-6.15 5.73c-.267.23-.554.49-.513.766.082.536 1.189.72 2.05.75 16.71.813 33.462-1.01 50.213-.75 3.978.061 8.037.23 11.872-.398 3.26-.537 6.458-1.824 7.565-3.785.574-1.026.533-2.145.472-3.233-.062-1.042 4.08-11.706 1.825-11.859-6.746-.46-9.165 5.822-12.815 7.983-5.31 3.14-11.482 3.171-17.838 2.942z"
            fill="#98CEE5"
          />
          <path
            opacity=".55"
            d="M82.749 52.95c-1.497-.123-3.383.107-4.777.459-1.292.322-2.235 1.011-3.117 1.685-2.296 1.778-4.408 3.647-6.294 5.593a82.42 82.42 0 016.356-4.398c1.291-.812 2.645-1.608 4.346-2.053 1.272-.337 2.686-.444 4.06-.46 2.214-.015 5.434.185 7.566.414-2.543-.505-5.762-1.041-8.14-1.24zm38.587 1.731c-3.936 1.042-8.386 1.134-12.65.874 4.264-.046 8.508-.644 12.343-1.777 1.127-.338 2.235-.705 3.178-1.226 1.353-.736 1.989-1.21 3.075-2.084.308-.26 2.317-1.961 2.727-1.9 0 0-1.251 1.762-1.456 2.023-1.435 1.853-4.162 3.278-7.217 4.09z"
            fill="#fff"
          />
        </g>
        <path
          fill-rule="evenodd"
          clip-rule="evenodd"
          d="M102.698 5.65c.624-.102 1.309.155 1.932.797 13.056 13.119 18.79 36.944 12.869 53.196-.275.757-.792 1.216-1.372 1.33l.001.005c-.623.102-1.308-.154-1.932-.796-13.024-13.145-18.789-36.945-12.869-53.196.276-.783.763-1.218 1.373-1.33l-.002-.005z"
          fill="#15E77B"
        />
        <path
          fill-rule="evenodd"
          clip-rule="evenodd"
          d="M101.83 38.941c-1.871-5.88-2.858-12.039-2.83-17.93.462-.972 1.077-1.805 1.699-2.646 1.323-1.793 2.674-3.621 2.618-6.904-.111-7.647 4.613-1.7 1.748 3.234-1.07 1.839-2.461 3.254-3.633 4.446-1.984 2.018-3.338 3.396-1.444 5.101 1.58 1.423 1.61.856 1.676-.38.059-1.122.148-2.794 1.449-4.033 2.734-2.605 8.76-2.33 4.277 3.57-4.463 5.885-9.671 15.678-2.715 13.395 4.008-1.316 3.236-3.563 2.464-5.812-.568-1.654-1.137-3.308.195-4.594 3.144-3.034 3.758 2.498 1.823 4.138-1.934 1.64 2.772 2.16 2.604.306-.167-1.854 10.137-1.486 3.199 4.169-3.448 2.818-7.127 2.9-9.725 2.957-1.798.04-3.078.068-3.405.983zm4.28 10.141a57.664 57.664 0 01-.369-.696c.074-1.19 2.309-3.154 4.086-3.302 2.753-.245-.465-3.126-1.767-1.61-1.302 1.518-8.927-4.198.781-4.888 4.837-.343 7.726 1.53 9.766 2.853.407.264.78.506 1.128.704.024.396.044.791.058 1.185-.359-.26-.901-.494-1.652-.696-4.092-1.103-5.247 1.026-6.404 3.16-.852 1.57-1.705 3.144-3.732 3.43-.942.132-1.549.061-1.895-.14zm3.559 5.718a51.297 51.297 0 01-2.451-3.756c5.045-1.488 10.867-3.798 12.614-5.735a48.928 48.928 0 01-.188 4.357c-1.387.257-2.523.695-3.4 2.207-1.576 2.715-3.176 4.26-4.8 5.244a29.36 29.36 0 01-.313-.387c.593-.432.906-1.044.854-1.976-.108-1.93-.574-1.51-1.587-.593-.217.196-.459.415-.729.639z"
          fill="#12CD6D"
        />
        <path
          fill-rule="evenodd"
          clip-rule="evenodd"
          d="M116.127 62.975c.687.117 1.442-.175 2.128-.906 14.383-14.926 20.699-42.034 14.177-60.525-.304-.861-.873-1.384-1.512-1.512l.001-.007c-.686-.116-1.441.176-2.128.906-14.348 14.956-20.698 42.035-14.176 60.525.304.891.84 1.386 1.511 1.513l-.001.006z"
          fill="url(#paint1_linear_8479_912)"
        />
        <path
          fill-rule="evenodd"
          clip-rule="evenodd"
          d="M128.052 1.72a48.517 48.517 0 00-2.128 2.49l3.695-1.512 2.499 3.327 1.469-.6a42.13 42.13 0 00-.383-1.453l-.564.23-2.517-3.33-2.071.847zm-3.523 4.32c-.311.427-.617.859-.918 1.297l.921 1.226 3.883-1.589 2.516 3.33 3.369-1.386c-.082-.5-.172-.997-.27-1.49l-2.594 1.05-2.499-3.327-3.883 1.589-.525-.7z"
          fill="#fff"
          fill-opacity=".3"
        />
        <path
          fill-rule="evenodd"
          clip-rule="evenodd"
          d="M122.432 9.128c-.288.455-.571.916-.848 1.383l1.762 2.331 3.883-1.589 2.499 3.328 3.883-1.589 1.311 1.746c-.049-.929-.12-1.85-.214-2.762l-.596-.793-3.882 1.59-2.497-3.346-3.883 1.589-1.418-1.888z"
          fill="#fff"
          fill-opacity=".3"
        />
        <path
          fill-rule="evenodd"
          clip-rule="evenodd"
          d="M120.491 12.424a65.46 65.46 0 00-.776 1.464l2.424 3.228 3.883-1.588 2.499 3.327 3.883-1.588 2.497 3.344.038-.015a62.75 62.75 0 00.061-2.367l-2.094-2.771-3.883 1.588-2.496-3.345-3.883 1.59-2.153-2.867z"
          fill="#fff"
          fill-opacity=".3"
        />
        <path
          fill-rule="evenodd"
          clip-rule="evenodd"
          d="M118.479 16.428c-.3.652-.591 1.31-.872 1.975l.832-.34 2.499 3.328 3.883-1.589 2.499 3.328 3.88-1.572 2.517 3.33.93-.382c.058-.561.11-1.121.154-1.68l-.58.237-2.499-3.328-3.883 1.589-2.499-3.328-3.88 1.572-2.517-3.331-.464.191z"
          fill="#fff"
          fill-opacity=".3"
        />
        <path
          fill-rule="evenodd"
          clip-rule="evenodd"
          d="M116.57 20.996a68.756 68.756 0 00-.679 1.888l1.341-.55 2.517 3.331 3.865-1.591 2.517 3.33 3.88-1.572 2.499 3.328 1.595-.652c.095-.576.182-1.151.262-1.727l-1.352.553-2.499-3.328-3.883 1.59-2.499-3.329-3.88 1.572-2.5-3.328-1.184.485z"
          fill="#fff"
          fill-opacity=".3"
        />
        <path
          fill-rule="evenodd"
          clip-rule="evenodd"
          d="M115.083 25.39a69.86 69.86 0 00-.53 1.837l1.496-.612 2.499 3.327 3.883-1.588 2.5 3.327 3.879-1.571 2.5 3.328 1.995-.817c.133-.59.259-1.182.377-1.774l-1.868.764-2.499-3.327-3.883 1.588-2.499-3.327-3.88 1.571-2.499-3.327-1.471.601z"
          fill="#fff"
          fill-opacity=".3"
        />
        <path
          fill-rule="evenodd"
          clip-rule="evenodd"
          d="M113.931 29.64a73.544 73.544 0 00-.4 1.783l1.313-.537 2.499 3.328 3.883-1.589 2.499 3.328 3.88-1.572 2.499 3.328 2.106-.862a71.72 71.72 0 00.503-1.815l-2.087.854-2.499-3.328-3.883 1.589-2.516-3.33-3.866 1.59-2.513-3.347-1.418.58z"
          fill="#fff"
          fill-opacity=".3"
        />
        <path
          fill-rule="evenodd"
          clip-rule="evenodd"
          d="M113.076 33.782a68.45 68.45 0 00-.281 1.725l.845-.346 2.5 3.327 3.882-1.588 2.514 3.347 3.865-1.591 2.517 3.33 1.867-.763c.225-.623.442-1.248.65-1.878l-2.012.815-2.499-3.327-3.883 1.588-2.5-3.327-3.882 1.588-2.497-3.344-1.086.444z"
          fill="#fff"
          fill-opacity=".3"
        />
        <path
          fill-rule="evenodd"
          clip-rule="evenodd"
          d="M112.491 37.82c-.065.56-.122 1.118-.173 1.676l.14-.057 2.499 3.328 3.883-1.589 2.496 3.345 3.883-1.589 2.499 3.328 1.248-.511c.287-.645.565-1.297.832-1.953l-1.575.638-2.499-3.328-3.883 1.589-2.499-3.328-3.883 1.589-2.499-3.328-.469.19z"
          fill="#fff"
          fill-opacity=".3"
        />
        <path
          fill-rule="evenodd"
          clip-rule="evenodd"
          d="M112.118 42.391a60.04 60.04 0 00-.063 2.393l1.694 2.256 3.88-1.571 2.499 3.327 3.883-1.588 2.5 3.327.115-.047c.366-.672.722-1.354 1.067-2.043l-.66.267-2.517-3.33-3.865 1.591-2.517-3.33-3.883 1.588-2.133-2.84z"
          fill="#fff"
          fill-opacity=".3"
        />
        <path
          fill-rule="evenodd"
          clip-rule="evenodd"
          d="M112.131 48.262c.049.937.12 1.866.215 2.785l.2.265 3.88-1.571 2.499 3.327 3.883-1.588 1.817 2.405c.286-.45.566-.906.84-1.367l-2.135-2.861-3.883 1.588-2.499-3.327-3.883 1.588-.934-1.244z"
          fill="#fff"
          fill-opacity=".3"
        />
        <path
          fill-rule="evenodd"
          clip-rule="evenodd"
          d="M112.656 53.456c.077.506.161 1.009.253 1.507l2.333-.945 2.499 3.328 3.883-1.589.907 1.208c.308-.42.611-.847.908-1.279l-1.31-1.755-3.883 1.589-2.499-3.328-3.091 1.264zm1.38 4.839l2.499 3.328 3.396-1.39a49.49 49.49 0 001.312-1.58l-.323-.428-3.88 1.572-2.5-3.328-1.22.5c.114.494.236.984.366 1.47l.35-.144z"
          fill="#fff"
          fill-opacity=".3"
        />
        <path
          fill-rule="evenodd"
          clip-rule="evenodd"
          d="M105.505 61.65c9.036 0 16.36-7.296 16.36-16.297 0-9.001-7.324-16.298-16.36-16.298s-16.36 7.297-16.36 16.298c0 9 7.324 16.298 16.36 16.298zm.114-7.521c4.802 0 8.695-3.879 8.695-8.662 0-4.784-3.893-8.662-8.695-8.662-4.802 0-8.695 3.878-8.695 8.662 0 4.783 3.893 8.662 8.695 8.662z"
          fill="url(#paint2_radial_8479_912)"
        />
        <path
          d="M105.404 62.791c-.287 0-.574 0-.862-.022a17.306 17.306 0 01-5.676-1.35c-2.87-1.218-5.256-3.52-7.531-7.261C89.612 51.324 88 48.668 88 45.546c0-1.749.596-3.741 1.038-5.18 1.303-4.361 4.903-7.283 7.863-9.342 3.556-2.457 11.507-3.454 16.454-1.04 3.114 1.505 5.411 3.807 6.692 6.619.177.376.331.752.508 1.129 1.347 2.966 2.65 5.778 2.429 8.877a17.84 17.84 0 01-1.612 6.22c-1.17 2.48-3.313 4.074-5.61 5.756a47.5 47.5 0 00-1.413 1.063c-2.651 2.036-5.809 3.143-8.945 3.143zm1.06-33.98c-3.666 0-7.333.929-9.43 2.39-2.938 2.037-6.494 4.937-7.797 9.231-.42 1.417-1.016 3.387-1.016 5.114 0 3.055 1.59 5.69 3.29 8.501 2.254 3.697 4.617 5.977 7.422 7.173 1.789.752 3.666 1.217 5.609 1.328 3.38.221 6.803-.864 9.674-3.077.464-.354.95-.709 1.414-1.063 2.252-1.682 4.395-3.254 5.543-5.69.906-1.947 1.458-4.006 1.591-6.131.22-3.055-1.061-5.823-2.408-8.767a25.52 25.52 0 01-.508-1.129c-1.237-2.79-3.534-5.025-6.582-6.508-1.943-.952-4.373-1.373-6.802-1.373z"
          fill="#F2D3B1"
        />
        <path
          d="M96.817 31.792c-.245-.307-.824-1.039-.468-1.134.357-.094.803.921.803.921l-.335.213zM91.66 54.009c-.308.244-1.043.821-1.138.466-.095-.355.924-.8.924-.8l.214.334zM119.119 36.7c.308-.244 1.043-.822 1.138-.466.095.355-.925.799-.925.799l-.213-.333z"
          fill="#FFAC5A"
        />
        <path
          opacity=".8"
          fill-rule="evenodd"
          clip-rule="evenodd"
          d="M100.812 29.738a16.36 16.36 0 00-6.665 3.886c2.057 1.88 4.409 4.62 5.328 5.715a8.69 8.69 0 014.38-2.352c-1.02-1.382-2.258-4.846-3.043-7.249zm-7.02 26.998c1.734-1.92 4.306-4.147 5.591-5.228a8.63 8.63 0 01-2.308-4.424c-1.577 1.013-4.97 2.197-7.253 2.93a16.272 16.272 0 003.97 6.722zm23.143.279c-1.871-1.678-4.028-4.137-5.142-5.447a8.689 8.689 0 01-4.432 2.391c.988 1.644 2.109 4.842 2.815 7.022a16.358 16.358 0 006.759-3.966zm.372-22.945c-1.831 1.986-4.462 4.238-5.616 5.202a8.638 8.638 0 012.422 4.334c1.47-.988 4.753-2.152 7.075-2.906a16.275 16.275 0 00-3.881-6.63z"
          fill="#F4F4F4"
        />
      </g>
      <defs>
        <linearGradient
          id="paint0_linear_8479_912"
          x1="28.033"
          y1="45.731"
          x2="136.642"
          y2="45.731"
          gradientUnits="userSpaceOnUse"
        >
          <stop stop-color="#FFD32A" />
          <stop offset="1" stop-color="#FCB013" />
        </linearGradient>
        <linearGradient
          id="paint1_linear_8479_912"
          x1="116.253"
          y1="63.734"
          x2="129.862"
          y2=".641"
          gradientUnits="userSpaceOnUse"
        >
          <stop stop-color="#F8CF03" />
          <stop offset="1" stop-color="#FFEE8B" />
        </linearGradient>
        <clipPath id="clip0_8479_912">
          <path
            fill="#fff"
            transform="matrix(-1 0 0 1 130 0)"
            d="M0 0h130v63H0z"
          />
        </clipPath>
        <clipPath id="clip1_8479_912">
          <path fill="#fff" transform="translate(28 32)" d="M0 0h102v31H0z" />
        </clipPath>
        <radialGradient
          id="paint2_radial_8479_912"
          cx="0"
          cy="0"
          r="1"
          gradientUnits="userSpaceOnUse"
          gradientTransform="matrix(0 16.2981 -16.3604 0 105.505 45.353)"
        >
          <stop offset=".146" stop-color="#C74F04" />
          <stop offset="1" stop-color="#FF8B37" />
        </radialGradient>
      </defs>
    </svg>